<?xml version="1.0" encoding="utf-8"?>
<!-- Svg Vector Icons : http://www.onlinewebfonts.com/icon -->
<!DOCTYPE svg PUBLIC "-//W3C//DTD SVG 1.1//EN" "http://www.w3.org/Graphics/SVG/1.1/DTD/svg11.dtd">
<svg version="1.1" xmlns="http://www.w3.org/2000/svg" xmlns:xlink="http://www.w3.org/1999/xlink" x="0px" y="0px" viewBox="0 0 256 256" enable-background="new 0 0 256 256" xml:space="preserve">
<metadata> Svg Vector Icons : http://www.onlinewebfonts.com/icon </metadata>
<g><g><path fill="#000000" d="M164.3,15.7c-61.9-20-128.6,14.1-148.5,76s14.1,128.6,76,148.5s128.6-14.1,148.5-76C260.3,102.3,226.1,35.7,164.3,15.7L164.3,15.7L164.3,15.7z M150,75.9l34.3-11.2l0-22.3c23,15.1,38.7,38.7,44.1,65.1l-20.3-7.9l-22.9,27.9l-25.2-1.5l-18.1-24.9L150,75.9L150,75.9L150,75.9z M133.4,25.7L120.2,44l21.2,29.2l-7.9,24.7l-29.6,9.7L82.9,94l-2-36l-21.7-5.7C79.1,34.1,105.9,24.3,133.4,25.7L133.4,25.7L133.4,25.7z M45.6,148.9l-12.4,17.9c-8.8-21.4-10.5-45.9-3-69.6l11.8,14.5c-1.3,7.2-1.7,14.4-1.3,21.5c0.1,2,0.3,4,0.6,6c0,0.2,0.2,0.7,0.7,0.7c0.5,0,0.7-0.6,0.7-0.7c0-2,0-4,0-5.9c0.3-6.5,1.3-13,3.1-19.4l32-12.4l20.7,13.3l0,30.4l-18.6,14.1L45.6,148.9L45.6,148.9L45.6,148.9z M96.5,225.6c-11.3-3.7-21.5-9.2-30.5-16l17.8-6.2c6.3,3.7,12.9,6.5,19.8,8.5c1.9,0.6,3.9,1.1,5.9,1.4c0.2,0,0.8,0,0.9-0.5c0.1-0.5-0.3-0.8-0.5-0.9c-1.9-0.6-3.7-1.3-5.6-2.1c-6.3-2.6-12.3-6-18-10.2l-0.7-33.3l18.3-13.9l29.8,9.6l6.7,22.1L118.6,213l12.2,17.4C119.5,230.7,107.9,229.3,96.5,225.6L96.5,225.6L96.5,225.6z M182.7,214.7l0.4-19.6c3.5-2.9,6.9-6,9.9-9.4c1.3-1.5,2.6-3.1,3.8-4.7c0.1-0.2,0.3-0.7,0-1c-0.4-0.3-0.9-0.1-1,0c-1.4,1.4-2.8,2.8-4.3,4.1c-3.4,3.1-7.1,5.8-11,8.4l-31.6-10.9l-7-23l17.2-23.7l25.6,1.5l19.5,30.4l20.7-5.4C217,184.2,201.8,202.6,182.7,214.7L182.7,214.7L182.7,214.7z"/></g></g>
</svg>